<svg id="Layer_1" data-name="Layer 1" xmlns="http://www.w3.org/2000/svg" width="351.1px" height="191.38px" viewBox="0 0 351.1 191.38"><defs><style>.cls-1{fill:#d52b1e;}</style></defs><title>LillyLogo_White</title><path class="cls-1" d="M371.85,248.16c2-1.45,4.23-3.14,6.28-4.76,15.8-12.65,27.88-26.5,30.26-34.16a5.42,5.42,0,0,0,.3-1.52c0-.79-.37-1.35-1.1-1.35-7.24,0-30.53,23.18-36.16,41.93v.08Zm-58.35-2.66c22-16.62,45.11-40.83,47.58-50.76a3.4,3.4,0,0,0,.15-.95,1.17,1.17,0,0,0-1.22-1.24c-7,0-39.21,29.74-46.51,52.94M178.38,260.11c-5.81-4-14.8-7.55-22.82-7.55-7.78,0-12.76,3.05-12.76,6.91,0,4.44,6,6.38,12.81,6.38a50.75,50.75,0,0,0,22.78-5.74M245.79,208c15.77-5.06,30.74-15.63,41.89-26.68,10.32-10.22,18.58-22.35,18.58-28.36a2.11,2.11,0,0,0-2.22-2.2c-4.77,0-13.84,6.34-26,18.55A324,324,0,0,0,245.79,208M480.61,246.1c-13.54,13.48-55.76,50.54-66.94,81.72l-13.83-3.56c4.52-12.92,18.14-33,33.32-48.51a27,27,0,0,1-9.3,1.67c-4.1,0-7.3-1.24-9.21-3.56a9.87,9.87,0,0,1-2.08-6.45,13.77,13.77,0,0,1,.12-1.77c-13.33,8.11-24.06,11.78-34.56,11.78-8.17,0-15.06-3.56-18.22-9.81-13.24,6.56-25.92,9.81-36.54,9.81-9.88,0-17.84-3.91-21.48-11-13.38,7.53-24.76,11-33.82,11-5.21,0-9.35-1.45-12-4.18a11.75,11.75,0,0,1-3.12-7.86c-8.58,5.65-21.1,12-34,12-13.13,0-22-4.51-28.79-9a72.65,72.65,0,0,1-35.6,9c-9.59,0-25.06-4-25.06-17.75,0-11.11,11.59-18.62,27.08-18.62,13.18,0,25.87,5.56,33.85,11.32,7.56-6,15.5-14.44,24.86-26.34-2.06.11-4.06.16-6,.16-17.93,0-32.9-5.28-41.07-14.53a25.3,25.3,0,0,1-6.5-17.16c0-24.94,31.49-44.29,59-47.13,1.83,4.13,3.45,7.3,5.13,11.09-27.22,3.16-49.89,19.27-49.89,35,0,10.34,11.64,20.73,36.32,20.73a91.84,91.84,0,0,0,12.66-1c21.79-30.07,55.19-76.78,83.92-76.78,8.5,0,12.94,5.16,12.94,12.08,0,14.22-12.23,29.53-20.19,37.52-12.53,12.58-35.17,31.3-66.8,37.5C222.51,240.65,212.4,252,202.28,260.2c6.14,3.31,11.88,5.34,18.74,5.34,17,0,33.53-15.59,46.44-28.79l.45-.44L278,244.16l-.46.55c-5.71,6.54-11,13.45-11,17.32,0,2.94,2.48,3.53,4.62,3.53,6.53,0,16.57-4.22,28.4-11.49V254c1.3-29.22,41.19-73.91,65.39-73.91,6.83,0,10.77,3.4,10.77,9.37,0,14.64-25.28,46.06-62,70.09v0c1.91,4.09,6.28,6.06,13.71,6.06,5.8,0,17.14-2.59,30.63-9.64,1.56-15.14,10.14-31.39,21-43s23.15-19.15,33.73-19.15c6.52,0,10.37,3.6,10.37,9.24,0,12.77-14.83,34.62-50.56,57.49,1.58,3.07,4.66,5,9.42,5,10.64,0,29.39-11.36,44-25.33l10.48,8.15c-4.47,5.43-9,11.41-8.86,14.85,0,1.11.79,1.85,2.55,1.85,10.76,0,27.71-14.21,40.42-26.75ZM285.76,216.79a8.61,8.61,0,1,1-8.62,8.6,8.6,8.6,0,0,1,8.62-8.6" transform="translate(-129.51 -136.44)"/></svg>